# Exported from Wings 3D 2.1.7
mtllib level2.mtl
o Cube2_copy3
#8 vertices, 12 faces
v -6.24698202 0.10000000 4.77111663
v -6.24698202 0.10000000 6.77111663
v 4.42169355 2.10000000 4.77111663
v 4.42169355 2.10000000 6.77111663
v 6.42169355 0.10000000 4.77111663
v 6.42169355 0.10000000 6.77111663
v 6.42169355 2.10000000 4.77111663
v 6.42169355 2.10000000 6.77111663
vn -0.18117906 -1.6835701e-2 -0.98330601
vn -0.18117906 -1.6835701e-2 0.98330601
vn -8.2684971e-2 0.88982247 -0.44875290
vn -8.2684971e-2 0.88982247 0.44875290
vn 0.57735027 -0.57735027 -0.57735027
vn 0.57735027 -0.57735027 0.57735027
vn 0.57735027 0.57735027 -0.57735027
vn 0.57735027 0.57735027 0.57735027
g Cube2_copy3_default
usemtl default
s 1
f 1//1 5//5 2//2
f 2//2 3//3 1//1
f 2//2 5//5 6//6
f 2//2 8//8 4//4
f 3//3 5//5 1//1
f 3//3 8//8 7//7
f 4//4 3//3 2//2
f 4//4 8//8 3//3
f 5//5 8//8 6//6
f 6//6 8//8 2//2
f 7//7 5//5 3//3
f 7//7 8//8 5//5
o Cube2
#8 vertices, 12 faces
v -8.11245038 0.10000000 -6.55131824
v -8.11245038 0.10000000 -4.55131824
v -8.11245038 2.10000000 -6.55131824
v -8.11245038 2.10000000 -4.55131824
v -6.11245038 0.10000000 -6.55131824
v -6.11245038 0.10000000 -4.55131824
v -6.11245038 2.10000000 -6.55131824
v -6.11245038 2.10000000 -4.55131824
vn -0.57735027 -0.57735027 -0.57735027
vn -0.57735027 -0.57735027 0.57735027
vn -0.57735027 0.57735027 -0.57735027
vn -0.57735027 0.57735027 0.57735027
vn 0.57735027 -0.57735027 -0.57735027
vn 0.57735027 -0.57735027 0.57735027
vn 0.57735027 0.57735027 -0.57735027
vn 0.57735027 0.57735027 0.57735027
g Cube2_default
usemtl default
s 1
f 9//9 13//13 10//10
f 10//10 11//11 9//9
f 10//10 13//13 14//14
f 10//10 16//16 12//12
f 11//11 13//13 9//9
f 11//11 16//16 15//15
f 12//12 11//11 10//10
f 12//12 16//16 11//11
f 13//13 16//16 14//14
f 14//14 16//16 10//10
f 15//15 13//13 11//11
f 15//15 16//16 13//13
o Cube1
#8 vertices, 12 faces
v -11.00000000 -0.10000000 -11.00000000
v -11.00000000 -0.10000000 11.00000000
v -11.00000000 0.10000000 -11.00000000
v -11.00000000 0.10000000 11.00000000
v 11.00000000 -0.10000000 -11.00000000
v 11.00000000 -0.10000000 11.00000000
v 11.00000000 0.10000000 -11.00000000
v 11.00000000 0.10000000 11.00000000
vn -0.57735027 -0.57735027 -0.57735027
vn -0.57735027 -0.57735027 0.57735027
vn -0.57735027 0.57735027 -0.57735027
vn -0.57735027 0.57735027 0.57735027
vn 0.57735027 -0.57735027 -0.57735027
vn 0.57735027 -0.57735027 0.57735027
vn 0.57735027 0.57735027 -0.57735027
vn 0.57735027 0.57735027 0.57735027
g Cube1_default
usemtl default
s 1
f 17//17 21//21 18//18
f 18//18 19//19 17//17
f 18//18 21//21 22//22
f 18//18 24//24 20//20
f 19//19 21//21 17//17
f 19//19 24//24 23//23
f 20//20 19//19 18//18
f 20//20 24//24 19//19
f 21//21 24//24 22//22
f 22//22 24//24 18//18
f 23//23 21//21 19//19
f 23//23 24//24 21//21
